<mxfile host="app.diagrams.net" modified="2022-05-11T20:12:21.109Z" agent="5.0 (Macintosh; Intel Mac OS X 10_15_7) AppleWebKit/537.36 (KHTML, like Gecko) Chrome/101.0.4951.54 Safari/537.36" etag="VRI0i6KW9jKnYttCeRZI" version="18.0.3" type="github">
  <diagram name="Page-1" id="58cdce13-f638-feb5-8d6f-7d28b1aa9fa0">
    <mxGraphModel dx="1130" dy="1054" grid="1" gridSize="10" guides="1" tooltips="1" connect="1" arrows="1" fold="1" page="1" pageScale="1" pageWidth="1100" pageHeight="850" background="none" math="0" shadow="0">
      <root>
        <mxCell id="0" />
        <mxCell id="1" parent="0" />
        <mxCell id="GTjylNqo9Tlx00r13sof-1" value="LoremIpsum Client" style="shape=ext;double=1;rounded=1;whiteSpace=wrap;html=1;verticalAlign=top;fontSize=18;" vertex="1" parent="1">
          <mxGeometry x="110" y="150" width="310" height="310" as="geometry" />
        </mxCell>
        <mxCell id="GTjylNqo9Tlx00r13sof-2" value="LoremIpsum Server" style="shape=ext;double=1;rounded=1;whiteSpace=wrap;html=1;verticalAlign=top;fontSize=18;" vertex="1" parent="1">
          <mxGeometry x="620" y="145" width="420" height="320" as="geometry" />
        </mxCell>
        <mxCell id="GTjylNqo9Tlx00r13sof-4" value="Frontend&lt;br&gt;(Webbrowser)" style="shape=ext;double=1;rounded=1;whiteSpace=wrap;html=1;fontSize=16;fillColor=#fff2cc;strokeColor=#d6b656;verticalAlign=middle;" vertex="1" parent="1">
          <mxGeometry x="280" y="195" width="120" height="235" as="geometry" />
        </mxCell>
        <mxCell id="GTjylNqo9Tlx00r13sof-5" value="" style="verticalLabelPosition=bottom;html=1;verticalAlign=top;align=center;strokeColor=none;fillColor=#00BEF2;shape=mxgraph.azure.computer;pointerEvents=1;fontSize=16;" vertex="1" parent="1">
          <mxGeometry x="150" y="195" width="50" height="45" as="geometry" />
        </mxCell>
        <mxCell id="GTjylNqo9Tlx00r13sof-6" value="" style="verticalLabelPosition=bottom;html=1;verticalAlign=top;align=center;strokeColor=none;fillColor=#00BEF2;shape=mxgraph.azure.laptop;pointerEvents=1;fontSize=16;" vertex="1" parent="1">
          <mxGeometry x="150" y="265" width="50" height="30" as="geometry" />
        </mxCell>
        <mxCell id="GTjylNqo9Tlx00r13sof-8" value="" style="verticalLabelPosition=bottom;html=1;verticalAlign=top;align=center;strokeColor=none;fillColor=#00BEF2;shape=mxgraph.azure.mobile;pointerEvents=1;fontSize=16;" vertex="1" parent="1">
          <mxGeometry x="158" y="315" width="35" height="50" as="geometry" />
        </mxCell>
        <mxCell id="GTjylNqo9Tlx00r13sof-9" value="" style="verticalLabelPosition=bottom;html=1;verticalAlign=top;align=center;strokeColor=none;fillColor=#00BEF2;shape=mxgraph.azure.tablet;pointerEvents=1;fontSize=16;" vertex="1" parent="1">
          <mxGeometry x="150" y="387.5" width="50" height="37.5" as="geometry" />
        </mxCell>
        <mxCell id="GTjylNqo9Tlx00r13sof-10" value="" style="endArrow=classic;startArrow=classic;html=1;rounded=0;fontSize=16;entryX=-0.008;entryY=0.101;entryDx=0;entryDy=0;entryPerimeter=0;exitX=1;exitY=0.5;exitDx=0;exitDy=0;exitPerimeter=0;" edge="1" parent="1" source="GTjylNqo9Tlx00r13sof-5" target="GTjylNqo9Tlx00r13sof-4">
          <mxGeometry width="50" height="50" relative="1" as="geometry">
            <mxPoint x="200" y="140" as="sourcePoint" />
            <mxPoint x="250" y="90" as="targetPoint" />
          </mxGeometry>
        </mxCell>
        <mxCell id="GTjylNqo9Tlx00r13sof-11" value="" style="endArrow=classic;startArrow=classic;html=1;rounded=0;fontSize=16;entryX=0.006;entryY=0.365;entryDx=0;entryDy=0;entryPerimeter=0;exitX=0.92;exitY=0.5;exitDx=0;exitDy=0;exitPerimeter=0;" edge="1" parent="1" source="GTjylNqo9Tlx00r13sof-6" target="GTjylNqo9Tlx00r13sof-4">
          <mxGeometry width="50" height="50" relative="1" as="geometry">
            <mxPoint x="193" y="279.38" as="sourcePoint" />
            <mxPoint x="272.03999999999996" y="280.6149999999999" as="targetPoint" />
          </mxGeometry>
        </mxCell>
        <mxCell id="GTjylNqo9Tlx00r13sof-12" value="" style="endArrow=classic;startArrow=classic;html=1;rounded=0;fontSize=16;entryX=-0.011;entryY=0.622;entryDx=0;entryDy=0;entryPerimeter=0;exitX=1;exitY=0.5;exitDx=0;exitDy=0;exitPerimeter=0;" edge="1" parent="1" source="GTjylNqo9Tlx00r13sof-8" target="GTjylNqo9Tlx00r13sof-4">
          <mxGeometry width="50" height="50" relative="1" as="geometry">
            <mxPoint x="200" y="339.38" as="sourcePoint" />
            <mxPoint x="279.03999999999996" y="340.6149999999999" as="targetPoint" />
          </mxGeometry>
        </mxCell>
        <mxCell id="GTjylNqo9Tlx00r13sof-13" value="" style="endArrow=classic;startArrow=classic;html=1;rounded=0;fontSize=16;entryX=-0.001;entryY=0.893;entryDx=0;entryDy=0;entryPerimeter=0;exitX=1;exitY=0.5;exitDx=0;exitDy=0;exitPerimeter=0;" edge="1" parent="1" target="GTjylNqo9Tlx00r13sof-4">
          <mxGeometry width="50" height="50" relative="1" as="geometry">
            <mxPoint x="200.96" y="405.63" as="sourcePoint" />
            <mxPoint x="279.99999999999994" y="406.8649999999999" as="targetPoint" />
          </mxGeometry>
        </mxCell>
        <mxCell id="GTjylNqo9Tlx00r13sof-14" value="Controller" style="rounded=1;whiteSpace=wrap;html=1;fontSize=16;fillColor=#dae8fc;strokeColor=#6c8ebf;" vertex="1" parent="1">
          <mxGeometry x="880" y="221" width="120" height="60" as="geometry" />
        </mxCell>
        <mxCell id="GTjylNqo9Tlx00r13sof-15" value="" style="endArrow=classic;startArrow=classic;html=1;rounded=0;fontSize=16;exitX=1;exitY=0.25;exitDx=0;exitDy=0;entryX=0;entryY=0.5;entryDx=0;entryDy=0;" edge="1" parent="1" source="GTjylNqo9Tlx00r13sof-4" target="GTjylNqo9Tlx00r13sof-17">
          <mxGeometry width="50" height="50" relative="1" as="geometry">
            <mxPoint x="490" y="260" as="sourcePoint" />
            <mxPoint x="610" y="251" as="targetPoint" />
          </mxGeometry>
        </mxCell>
        <mxCell id="GTjylNqo9Tlx00r13sof-16" value="User Interactions&lt;br&gt;(REST)" style="edgeLabel;html=1;align=center;verticalAlign=middle;resizable=0;points=[];fontSize=16;" vertex="1" connectable="0" parent="GTjylNqo9Tlx00r13sof-15">
          <mxGeometry x="0.1661" y="3" relative="1" as="geometry">
            <mxPoint x="-26" y="1" as="offset" />
          </mxGeometry>
        </mxCell>
        <mxCell id="GTjylNqo9Tlx00r13sof-17" value="Spring&amp;nbsp;&lt;br&gt;(Serializer)" style="rounded=1;whiteSpace=wrap;html=1;fontSize=16;fillColor=#d5e8d4;strokeColor=#82b366;" vertex="1" parent="1">
          <mxGeometry x="640" y="221" width="120" height="60" as="geometry" />
        </mxCell>
        <mxCell id="GTjylNqo9Tlx00r13sof-18" value="" style="endArrow=classic;startArrow=classic;html=1;rounded=0;fontSize=16;entryX=0;entryY=0.5;entryDx=0;entryDy=0;exitX=1;exitY=0.5;exitDx=0;exitDy=0;" edge="1" parent="1" source="GTjylNqo9Tlx00r13sof-17" target="GTjylNqo9Tlx00r13sof-14">
          <mxGeometry width="50" height="50" relative="1" as="geometry">
            <mxPoint x="500" y="400" as="sourcePoint" />
            <mxPoint x="550" y="350" as="targetPoint" />
          </mxGeometry>
        </mxCell>
        <mxCell id="GTjylNqo9Tlx00r13sof-19" value="Json&lt;br&gt;serialization" style="edgeLabel;html=1;align=center;verticalAlign=middle;resizable=0;points=[];fontSize=16;" vertex="1" connectable="0" parent="GTjylNqo9Tlx00r13sof-18">
          <mxGeometry x="-0.3016" y="3" relative="1" as="geometry">
            <mxPoint x="18" y="3" as="offset" />
          </mxGeometry>
        </mxCell>
        <mxCell id="GTjylNqo9Tlx00r13sof-20" value="Model" style="rounded=1;whiteSpace=wrap;html=1;fontSize=16;fillColor=#e1d5e7;strokeColor=#9673a6;" vertex="1" parent="1">
          <mxGeometry x="880" y="340" width="120" height="60" as="geometry" />
        </mxCell>
        <mxCell id="GTjylNqo9Tlx00r13sof-21" value="Interact with model" style="endArrow=classic;startArrow=classic;html=1;rounded=0;fontSize=16;exitX=0.25;exitY=0;exitDx=0;exitDy=0;entryX=0.25;entryY=1;entryDx=0;entryDy=0;" edge="1" parent="1" source="GTjylNqo9Tlx00r13sof-20" target="GTjylNqo9Tlx00r13sof-14">
          <mxGeometry width="50" height="50" relative="1" as="geometry">
            <mxPoint x="880" y="40" as="sourcePoint" />
            <mxPoint x="930" y="-10" as="targetPoint" />
          </mxGeometry>
        </mxCell>
      </root>
    </mxGraphModel>
  </diagram>
</mxfile>
